<svg width="22" height="22" xmlns="http://www.w3.org/2000/svg"><path d="M11.422 4.986c.534-.3 1.129-.48 1.604-.84-.535.18-1.188.42-1.604.84zM9.46 6.008c.198 0 .314-.167.485-.223l.11-.018c.119-.18.475-.18.653-.48-.534.18-.95.42-1.248.72zm-1.01 8.47c-.416-.18-.772-.18-1.248-.24.178.18 1.01.24 1.248.24zM14.81 3.184c-.535.24-1.189.42-1.605.841.208 0 .189-.138.38-.172l.096-.008c-1.189.66-2.377 1.382-3.625 1.922-.357.3-.773.601-1.308.721.238-.18.535-.3.713-.48-1.01.42-1.901 1.02-2.674 1.561.05.05.1-.066.183-.107l.055-.013c0 .18-.179.3-.416.3 0-.047.01-.076.028-.097l.008-.006-.123.057c-.226.1-.457.193-.626.407-.832.42-1.605.901-2.318 1.502a.811.811 0 00-.535.42c-1.07.601-1.842 1.322-2.615 2.043-.06-.24.178-.24.178-.48-.67.452-.552 1.809-.586 2.718l-.008.164.009-.028c.027-.048.11-.081.11-.03-.297.3 0 .66.06 1.02.356.42.772.601 1.129.841 1.426.36 3.15.841 4.397.841 1.962.601 4.16.902 5.884 1.322 1.367.54 3.03.841 4.516 1.742.892.06 1.843.962 2.794 1.442-.12.18.06.18.119.3.297-.06.297.12.475.06.357-.3.357-.78.297-1.261-.356-1.742-1.842-3.244-3.387-3.845-.12.12.178.06.118.24-.237 0-.416-.12-.475-.3.06 0 .119-.06.119-.18-.238 0-.238-.12-.416-.12-.06.24.178.12.119.3-.179.06-.179-.24-.416-.18 0-.06-.06-.06-.06-.12-2.674-1.082-5.764-1.682-9.27-2.283-.06-.18.178 0 .118-.24-.356 0-.297-.12-.654-.06 0 .06 0 .12-.059.18-.357-.18-.535 0-.832-.18.119-.18.357.06.773 0-.714-.361-1.427-.18-2.021-.601 5.349-3.665 11.41-6.548 17.116-9.793 0-.06 0-.24.119-.24.713-.18 1.248-.6 1.307-1.502-.06 0-.178 0-.178-.06 0-.42-.416-1.321-.713-1.141-.06-.3-.238-.54-.535-.601-.06.3-.535.18-.713.42.178.12.297-.18.475-.06-1.367.721-2.793 1.382-4.16 2.043.119.3-.238.42-.357.36 0-.18.238-.06.297-.24-.534.18-.95.36-1.307.661z" fill="#FFF" fill-rule="nonzero"/></svg>