<svg width="321" height="90" xmlns="http://www.w3.org/2000/svg" xmlns:xlink="http://www.w3.org/1999/xlink"><defs><path id="a" d="M0 .365h320.48v88.493H0z"/><path id="c" d="M.357.398h3.615v.875H.357z"/><path id="e" d="M.19.398h2.791v.781H.19z"/><path id="g" d="M.409.398h1.773v.843H.409z"/><path id="i" d="M.1.398h1.986v.783H.1z"/><path id="k" d="M.12.398h2.37v.852H.12z"/></defs><g fill="none" fill-rule="evenodd"><g transform="translate(0 .416)"><mask id="b" fill="#fff"><use xlink:href="#a"/></mask><path d="M217.593.365h1.604c.534.55 1.187.221 1.782.314.629 0 1.257-.002 1.885 0h1.503c.595-.093 1.247.235 1.78-.314h1.07c.726.583 1.552.3 2.326.298 11.638-.001 23.264.688 34.895.807 5.933.06 11.889-.331 17.826-.324 5.556.006 11.158-.355 16.686.933 3.132.729.68 1.095 3.903 1.1 4.792.006 8.873 2.66 13.042 4.913.39.21.952.61.812 1.066-.586 1.916.728 1.832 1.652 2.243 2.455 1.094 2.72 2.368 1.102 5.069-4.6 2.99-4.6 2.99-3.733 9.068.13.902.121 1.814.137 2.723-.363 4.253-1.469 4.8-4.94 2.206.005 1.112.684 1.632 1.062 2.292.436.763 1.016 1.406 1.516 2.117.562.8 1.316 1.832.571 2.69-1.491 1.715-1.125 3.637-1.02 5.652.09 1.755-.635 3.344-1.257 4.914-.496 1.248-.576 2.372.656 3.109 2.178 1.303 2.5 3.522 2.254 5.972-.177 1.765-.234 3.357 1.15 4.687 1.183 1.138.567 2.383-.29 3.418-.732.886-1.732 1.427-2.467 2.312-.804.968-1.486 1.946-1.138 3.49 1.013 4.487.856 4.714-3.206 5.704-.175.043-.348.084-.696.264 1.236 1.315.726 2.279-.548 2.908-4.64 2.29-3.54 4.811-8.859 4.643-3.63-.117-7.241.8-10.827 1.541-4.638.96-9.188-.104-13.764-.702-2.213-.237-4.394-.8-6.63-.78-25.707-1.58-51.438-1.401-77.16-1.116-13.517.15-27.038.725-40.553 1.233-10.401.39-20.808.717-31.201 1.23-10.126.503-20.264.57-30.39 1.491-17.664 1.607-35.394 1.665-53.087.627-7.242-.425-14.485-1.537-21.657-2.993-2.075-.421-3.786-1.619-4.573-3.771-1.055-2.888-2.846-4.89-5.062-6.457C1.1 73.068.195 70.355.26 66.967c.06-3.146.129-6.269.978-9.31.624-2.232.04-4.422-.378-6.595-.398-2.068-.425-4.199-.86-6.258v-.61a8.973 8.973 0 000-4.87v-.607c.517-5.387 2.463-10.324 3.786-15.453 1.266-4.91 3.679-8.989 7.538-11.808 1.237-.905 1.988-2.005 2.32-3.806.517-2.813 2.753-3.569 4.935-3.82 2.835-.328 5.746-.505 8.536 0 4.753.86 9.442.25 14.115-.281 14.717-1.67 29.454-2.43 44.245-2.665 17.28-.275 34.562-.36 51.836-.118 19.42.272 38.836-.054 58.252.265 6.139.1 12.267.542 18.383-.351 1.212-.15 2.465.319 3.647-.315" fill="#E479A5" mask="url(#b)"/></g><g transform="translate(213.407 2.416)"><mask id="d" fill="#fff"><use xlink:href="#c"/></mask><path d="M.38.917A.818.818 0 01.425.398h3.546C2.918 1.83 1.577.74.379.918" fill="#B82446" mask="url(#d)"/></g><g transform="translate(220.52 2.416)"><mask id="f" fill="#fff"><use xlink:href="#e"/></mask><path d="M2.79.96L.385.94C.208.81.151.69.215.57.28.456.341.398.403.398h2.364c.185.115.25.237.195.365-.055.131-.113.197-.171.197" fill="#B82446" mask="url(#f)"/></g><g transform="translate(218.742 2.416)"><mask id="h" fill="#fff"><use xlink:href="#g"/></mask><path d="M2.182.398c-.005.181-.01.361-.019.542C1.533.941.768 1.5.41.398h1.773z" fill="#B82446" mask="url(#h)"/></g><g transform="translate(222.3 2.416)"><mask id="j" fill="#fff"><use xlink:href="#i"/></mask><path d="M.123.96A6.598 6.598 0 01.1.398h1.772c.184.114.249.236.197.366-.054.134-.11.2-.168.2C1.308.964.716.961.123.96" fill="#B82446" mask="url(#j)"/></g><g transform="translate(224.078 2.416)"><mask id="l" fill="#fff"><use xlink:href="#k"/></mask><path d="M.164.965a2.163 2.163 0 01-.04-.566H2.49C2.056 1.588.979.889.164.965" fill="#B82446" mask="url(#l)"/></g><path d="M319.222 17.416c-2.716 3.322-2.96 7.686-3.321 12-.108-1.61-.11-3.21-.54-4.799-1.167-4.308-.758-5.18 2.783-6.665.366-.153.72-.356 1.078-.536m-44.46 68.734c-2.133.286-4.286.876-6.225-1.734 2.079.512 4.198.444 6.225 1.735" fill="#B82446"/></g></svg>