<svg width="300" height="70" xmlns="http://www.w3.org/2000/svg" xmlns:xlink="http://www.w3.org/1999/xlink"><defs><path id="a" d="M0 .284h299.514v68.828H0z"/><path id="c" d="M.334.31h3.378v.68H.334z"/><path id="e" d="M.178.31h2.608v.607H.178z"/><path id="g" d="M.382.31h1.657v.655H.382z"/><path id="i" d="M.093.31H1.95v.609H.093z"/><path id="k" d="M.113.31h2.213v.662H.113z"/></defs><g fill="none" fill-rule="evenodd"><g transform="translate(0 .323)"><mask id="b" fill="#fff"><use xlink:href="#a"/></mask><path d="M203.358.284h1.499c.499.427 1.11.172 1.666.244h3.166c.556-.072 1.165.183 1.664-.244h1c.677.454 1.45.233 2.174.232 10.876-.001 21.741.535 32.61.628 5.546.046 11.112-.258 16.661-.253 5.193.005 10.428-.276 15.595.726 2.927.567.636.852 3.647.855 4.48.005 8.293 2.069 12.189 3.822.364.163.89.474.76.829-.549 1.49.679 1.425 1.543 1.745 2.294.85 2.542 1.842 1.03 3.942-4.3 2.326-4.299 2.326-3.489 7.053.121.702.113 1.41.128 2.118-.339 3.308-1.373 3.734-4.616 1.716.004.864.639 1.269.991 1.782.409.593.95 1.094 1.418 1.646.525.622 1.23 1.425.533 2.092-1.394 1.335-1.052 2.83-.954 4.397.085 1.365-.592 2.6-1.174 3.822-.463.971-.539 1.845.613 2.418 2.036 1.013 2.336 2.74 2.107 4.645-.165 1.373-.22 2.611 1.075 3.646 1.105.885.53 1.853-.271 2.658-.685.689-1.619 1.11-2.306 1.798-.752.753-1.389 1.514-1.063 2.714.946 3.49.799 3.667-2.997 4.437-.163.033-.325.065-.65.205 1.155 1.023.678 1.773-.513 2.262-4.337 1.78-3.309 3.742-8.279 3.611-3.392-.09-6.767.623-10.118 1.2-4.335.745-8.588-.082-12.864-.547-2.069-.184-4.106-.623-6.196-.607-24.026-1.229-48.074-1.09-72.112-.867-12.633.116-25.27.563-37.9.958-9.722.304-19.447.558-29.16.957-9.464.39-18.938.444-28.402 1.16-16.509 1.25-33.078 1.294-49.615.487-6.767-.33-13.537-1.196-20.24-2.328-1.939-.327-3.538-1.259-4.273-2.933-.987-2.246-2.66-3.803-4.73-5.022C1.026 56.831.181 54.72.242 52.085c.057-2.446.12-4.875.914-7.24.583-1.736.037-3.44-.353-5.13C.432 38.106.406 36.45 0 34.847v-.473a5.856 5.856 0 000-3.788v-.473c.483-4.19 2.302-8.03 3.538-12.02 1.183-3.818 3.438-6.99 7.045-9.183 1.156-.703 1.858-1.56 2.168-2.96.484-2.188 2.573-2.776 4.612-2.972 2.65-.254 5.37-.392 7.978 0 4.442.67 8.825.195 13.192-.218C52.287 1.46 66.06.87 79.883.688c16.15-.214 32.302-.281 48.445-.092 18.149.211 36.296-.042 54.44.206 5.738.078 11.465.421 17.182-.273 1.132-.117 2.304.248 3.408-.245" fill="#E479A5" mask="url(#b)"/></g><g transform="translate(199.446 1.879)"><mask id="d" fill="#fff"><use xlink:href="#c"/></mask><path d="M.354.713A.538.538 0 01.398.31h3.314C2.727 1.423 1.474.575.354.713" fill="#B82446" mask="url(#d)"/></g><g transform="translate(206.094 1.879)"><mask id="f" fill="#fff"><use xlink:href="#e"/></mask><path d="M2.608.747L.359.73C.195.63.142.536.201.443.261.355.32.31.377.31h2.21c.172.09.233.184.181.284-.051.101-.105.153-.16.153" fill="#B82446" mask="url(#f)"/></g><g transform="translate(204.432 1.879)"><mask id="h" fill="#fff"><use xlink:href="#g"/></mask><path d="M2.04.31c-.005.14-.01.28-.018.421C1.433.732.718 1.167.382.31h1.657z" fill="#B82446" mask="url(#h)"/></g><g transform="translate(207.756 1.879)"><mask id="j" fill="#fff"><use xlink:href="#i"/></mask><path d="M.115.747A4.276 4.276 0 01.093.31H1.75c.172.088.232.183.183.284-.05.105-.102.156-.156.156L.115.747" fill="#B82446" mask="url(#j)"/></g><g transform="translate(209.418 1.879)"><mask id="l" fill="#fff"><use xlink:href="#k"/></mask><path d="M.153.75A1.407 1.407 0 01.117.31h2.21C1.921 1.235.913.692.152.75" fill="#B82446" mask="url(#l)"/></g><path d="M298.338 13.546c-2.538 2.584-2.767 5.977-3.104 9.333-.1-1.253-.103-2.496-.505-3.732-1.09-3.35-.707-4.03 2.602-5.184.342-.12.672-.277 1.007-.417M256.787 67.006c-1.994.222-4.005.681-5.817-1.35 1.942.4 3.923.346 5.817 1.35" fill="#B82446"/></g></svg>