<svg version="1.1" id="Ebene_1" xmlns="http://www.w3.org/2000/svg" xmlns:xlink="http://www.w3.org/1999/xlink" x="0" y="0" viewBox="0 0 566.9 566.9" xml:space="preserve"><style>.st0{clip-path:url(#SVGID_2_)}.st1{clip-path:url(#SVGID_4_)}.st2{clip-path:url(#SVGID_6_)}</style><defs><path id="SVGID_1_" d="M45.3 226.9h476.3v113.2H45.3z"/></defs><clipPath id="SVGID_2_"><use xlink:href="#SVGID_1_" overflow="visible"/></clipPath><path class="st0" d="M433.3 288.1c-9.5 10.7-21.6 11.5-26.6 11.5-4 0-15.8-.5-24.7-9.6-8.4-8.4-9.1-18.6-9.1-22.7 0-3.9.7-14.6 8.8-23 8.9-9.2 20.9-10 24.9-10 17.1 0 25 10.2 25.4 10.7 1.2-2 2.5-3.9 4.1-5.7-.3-.3-10.8-11.6-29.7-11.6-5.8 0-21.6 1.2-32.8 14.8-7.9 9.6-8.5 19.6-8.5 24.3 0 12.7 5.6 24.2 15.6 31.7 4.6 3.4 12.2 7.6 25.6 7.6 19.9 0 30-11 31.3-12.3-1.6-1.8-3-3.7-4.3-5.7M111.9 289.3c-8.7 8.6-20 9.8-25 9.8-4 0-15.8-.5-24.7-9.6-8.4-8.4-9.1-18.6-9.1-22.7 0-3.9.7-14.6 8.8-23 8.9-9.2 20.9-10 24.9-10 17.9 0 25.6 11 26 11.5 1-2.4 2-4.8 3.3-6.7-.3-.3-10.6-11.4-29.5-11.4-5.8 0-21.6 1.2-32.8 14.8-7.9 9.6-8.5 19.6-8.5 24.3 0 12.7 5.6 24.3 15.6 31.7 4.6 3.4 12.2 7.6 25.6 7.6 16.8 0 26.9-8.2 28.2-9.5-1.1-2.1-2.1-4.6-2.8-6.8"/><path d="M351.1 227.8h7.4v77.9h-7.4z"/><defs><path id="SVGID_3_" d="M45.3 226.9h476.3v113.2H45.3z"/></defs><clipPath id="SVGID_4_"><use xlink:href="#SVGID_3_" overflow="visible"/></clipPath><path class="st1" d="M274.5 264.3v-30.1h40c4.4 0 8.7 0 12.6 2.5 5.4 3.6 6 10.2 6 12 0 3.5-1.2 6.4-1.8 7.5-3.3 6.5-9.8 7.6-16.3 7.9-1.8.1-3.4.1-5.2.1h-35.3zm39 6.6c6.8-.3 13.9-.7 19.8-5 7.4-5.5 7.9-13.7 7.9-16.8 0-2.1-.2-7.5-3.4-12.4-5.5-8.4-13.9-9.1-23.5-9.1H267v77.9h7.5v-34.8h29.1l30.8 34.8h10.5l-31.4-34.6zM186.6 227.8c5.6 2.5 8.9 6.4 8.9 6.4h35.1v71.5h7.4v-71.5h23.5v-6.4h-74.9zM453 242c6.8-6 14.4-8.3 23.2-8.3 13.6 0 21.9 5.9 21.9 5.9 11.9 7.1 13.6 20.5 13.6 20.5h-68.5s1.1-10.5 9.8-18.1m27.3 56.7c-9.4 0-18.2-2.8-25.1-7.8-12.1-8.8-12.2-24.2-12.2-24.2h78.5c-.7-7.6-1.6-11-3.3-14.8-2.5-5.8-6.1-9.7-7.9-11.5-11.8-12.1-27.8-13.1-33.4-13.1 0 0-18.3-.5-30.5 10.5-7.7 6.7-11.8 17-11.8 27.2 0 13.5 6.6 25.6 17.5 32.8 10.8 7.2 22.6 7.8 27.1 7.8 13.7 0 23.4-4.8 27.7-7.5 7.4-4.8 11.9-10.7 14.3-13.9l-6.2-4.4c-1.1 1.6-10.9 18.9-34.7 18.9M215.6 337.8c-1.2.9-3.4 2.2-7.1 2.2-3.5 0-5.5-1.1-6.8-2-2.6-1.9-4.1-4.9-4.1-8.3 0-1.2.2-3.8 2.2-6.3 3-3.6 7.1-3.9 8.6-3.9 1.2 0 4.8.2 7.5 2.8.9.8 1.4 1.6 2 2.5l-1.6.9c-.2-.3-.7-1.3-1.5-2.1-2.2-2.3-5.4-2.4-6.4-2.4-1.1 0-4.2.2-6.6 2.6-2.1 2.2-2.3 5-2.3 6 0 1.1.2 3.7 2.4 5.9 2.4 2.4 5.4 2.5 6.5 2.5 1.3 0 4.5-.2 7.1-3 .4-.5.7-.8 1.3-1.7l1.7.8c-.4.8-1.1 2.2-2.9 3.5M257.2 327.6c-.2-1.1-1.1-3.6-3.8-5.1-.9-.5-3-1.4-5.8-1.3-.8 0-3.4.2-5.5 1.8-1.1.8-3.3 3-3.3 6.9 0 .5.1 1.9.6 3.3 1.9 4.9 7.4 5.2 8.8 5.2 1 0 3.7-.1 6.1-1.9 3-2.3 3.2-5.6 3.2-6.8-.1-.4-.1-1.1-.3-2.1m.1 8.5c-3.1 3.7-7.8 4-9.3 4-1.6 0-7.3-.3-10.1-5.2-1.2-2.1-1.3-4.1-1.3-5 0-.7.1-2.2.8-4 1.8-4.3 6.2-6.3 10.7-6.3 1.6 0 6.9.2 9.8 4.8 1.4 2.2 1.6 4.4 1.6 5.4 0 1.1-.2 3.9-2.2 6.3M297 336.7c-1.2 1.7-3.8 3.4-8.5 3.4-.5 0-1.1 0-1.7-.1-.8 0-4.9-.2-7.3-2.8-.7-.8-1.1-1.6-1.6-2.5l2-.8c.2.6.8 2 2.3 3 1.1.7 3.1 1.4 6.1 1.4.7 0 3.4 0 5.5-1.3 1.2-.7 2.1-1.8 2.1-3.2 0-1.1-.6-1.7-.9-2-1.2-1-4.5-1.4-5.9-1.6-1.2-.2-2.4-.3-3.5-.5-1.2-.2-2.8-.4-3.9-1-.7-.3-2.3-1.3-2.3-3.6 0-1.9 1.2-3.4 2.8-4.3 1.7-1 4.2-1.3 6.1-1.3 1.2 0 4.8.1 7.7 2.5.7.6 1.1 1.1 1.3 1.3l-1.7.9c-.2-.2-.4-.5-.6-.7-1.8-1.8-4.4-2.4-6.9-2.4-.6 0-3.1 0-5 1.1-.6.3-1.1.8-1.4 1.4-.1.2-.4.7-.4 1.4 0 1.4 1.1 1.9 1.5 2.1.8.4 1.8.5 3.6.8 4.2.6 6.9.9 8.6 1.6 1.7.7 2.9 2.2 2.9 4.1 0 .7-.1 1.9-.9 3.1M337.3 339.5v-17.2c-.2.5-.4.8-.6 1.3l-7.3 15.9h-1.9l-7.4-15.7c-.2-.3-.3-.7-.5-1.5v17.2h-1.8v-19.3h2.5l7.3 15.6c.4.7.6 1.3.9 2l8.1-17.7h2.4v19.3h-1.7z"/><path d="M359.9 339.5v-19.3h18.5v1.6h-16.6v6.8h15.4v1.6h-15.4v7.7h17.4v1.6zM407.3 321.8v17.7h-1.8v-17.7h-8.7v-1.6h18.8v1.6zM434.3 320.2h1.8v19.3h-1.8z"/><g><defs><path id="SVGID_5_" d="M45.3 226.9h476.3v113.2H45.3z"/></defs><clipPath id="SVGID_6_"><use xlink:href="#SVGID_5_" overflow="visible"/></clipPath><path class="st2" d="M473.7 337.8c-1.2.9-3.4 2.2-7 2.2-3.5 0-5.6-1.1-6.8-2-2.6-1.9-4.1-4.9-4.1-8.3 0-1.2.2-3.8 2.2-6.3 3-3.6 7.1-3.9 8.6-3.9 1.2 0 4.8.2 7.6 2.8.9.8 1.4 1.6 2 2.5l-1.6.9c-.2-.3-.7-1.3-1.5-2.1-2.2-2.3-5.4-2.4-6.4-2.4-1.1 0-4.2.2-6.6 2.6-2.1 2.2-2.3 5-2.3 6 0 1.1.2 3.7 2.4 5.9 2.4 2.4 5.4 2.5 6.5 2.5 1.3 0 4.5-.2 7-3 .4-.5.7-.8 1.3-1.7l1.7.8c-.4.8-1.2 2.2-3 3.5M513.7 336.7c-1.2 1.7-3.8 3.4-8.5 3.4-.5 0-1.1 0-1.7-.1-.8 0-4.9-.2-7.3-2.8-.7-.8-1.2-1.6-1.6-2.5l2-.8c.2.6.8 2 2.3 3 1.1.7 3.1 1.4 6.1 1.4.7 0 3.4 0 5.5-1.3 1.2-.7 2.1-1.8 2.1-3.2 0-1.1-.6-1.7-.9-2-1.2-1-4.5-1.4-5.9-1.6-1.2-.2-2.4-.3-3.5-.5-1.2-.2-2.8-.4-3.9-1-.7-.3-2.3-1.3-2.3-3.6 0-1.9 1.2-3.4 2.8-4.3 1.7-1 4.2-1.3 6.1-1.3 1.2 0 4.8.1 7.7 2.5.7.6 1.1 1.1 1.3 1.3l-1.7.9c-.2-.2-.4-.5-.6-.7-1.8-1.8-4.4-2.4-6.9-2.4-.5 0-3.1 0-5 1.1-.5.3-1.1.8-1.4 1.4-.1.2-.4.7-.4 1.4 0 1.4 1.1 1.9 1.5 2.1.8.4 1.7.5 3.6.8 4.2.6 6.9.9 8.6 1.6 1.7.7 2.9 2.2 2.9 4.1 0 .7-.1 1.9-.9 3.1M185.9 283.4c-2.7 5.3-7.3 8-8.8 8.9-10.8 6.6-22.4 7.3-26.8 7.3-14.4 0-20.2-6.4-20.2-6.4-4-4.1-4.2-9.7-4.2-10.7 0-4 1.4-6.8 2.4-8.6 0 0 4.2-8.1 20-10 8.8-1.4 20.1-1.9 40.5-2.1v1.4c.1 5.7-.1 14.9-2.9 20.2m17.7 15.6c-10.3.7-9.1-11.6-8.9-13.4.2-1.1.9-11.7.9-24.4 0-11.4-1.1-16.2-2.2-19.1-.7-2-1.7-3.9-3.2-5.8-5.2-6.2-16.8-9.5-33.2-9.5-5.6 0-17.3.5-25.5 5.3-8.3 4.7-10.9 12.3-12.1 16.8l7.4.5c.9-3.5 3.5-9.5 8.8-12.2 5.2-2.7 11.4-3.8 21.8-3.8s23.8 1.4 28.4 8.3c3 4.5 2.7 14 2.7 14-27 .3-51.6.5-61.9 8.2-5.3 4.1-8.5 10.9-8.5 18.1 0 5.5 1.6 10.4 4.5 14.2 6.4 8.5 16.4 9.7 26.3 9.7 13.8 0 29.2-3.3 38.8-14.2 0 3.6.7 10.7 8.8 12.4 3.9.6 7.4-.2 7.4-.2v-5c.1.1 0 .1-.3.1"/></g></svg>