<svg xmlns="http://www.w3.org/2000/svg" viewBox="0 0 566.9 566.9"><style>.st0{fill:#b01b84}</style><g id="Logo_final"><path class="st0" d="M288.9 207.3c-7.6-4.2-15.8-4.1-22.9.4-5.9 3.7-9 8.9-10 16.8h43.1c0-7.5-3.7-13.6-10.2-17.2z"/><path class="st0" d="M277.4 182c-25.8 0-46.8 20.9-46.8 46.8 0 25.8 20.9 46.8 46.8 46.8 25.8 0 46.8-20.9 46.8-46.8-.1-25.8-21-46.8-46.8-46.8zm32.5 50.6H256c1.1 9.4 5.4 15.6 13.2 18.9 10.3 4.3 20.3 2.5 30.7-5.6l.2-.2.2.2c.8 1 1.6 2 2.4 3.1.8 1 1.6 2.1 2.5 3.1l.2.2-.2.2c-6.9 6.5-15.6 9.7-26.7 9.7h-1.9c-9.8-.3-18.5-4.3-24.4-11.1-6-6.9-8.7-15.9-7.6-25.4 1.6-14.5 9.5-24.4 22.9-28.5 9.1-2.8 19-1.8 27.2 3 7.8 4.5 13 11.7 14.9 20.3.7 3.4 1.1 7 1.1 11.5-.2.3-.5.6-.8.6zm69.9 82.6c0-2.2-.7-4.6-1.9-7.3-3.4-7.7-13.3-11.6-24-9.6-7.2 1.3-13.1 4.3-18.8 9.3v-8h-10.7v64.1h10.8v-.3c0-6.7 0-13.5-.1-20.2 0-6.5-.1-13.3-.1-19.8 0-6.1 2.2-9.8 7.4-12.5 2-1.1 4.2-1.8 6.7-2.5 4.6-1.1 10.9-1.8 15.2 1.6 3.1 2.4 4.6 6.5 4.6 12.2v41.5h11v-12.5c0-11.9 0-24.1-.1-36zm-221.6 12.5c-2.1-.9-4.4-1.5-6.7-2.1l-2.1-.6c-1.9-.5-3.8-1.1-5.7-1.6-3.3-.9-6.7-1.9-10-2.9-3.2-1-4.8-3-5-5.9-.2-3.2 1.2-5.5 4.2-7.2 3.4-1.9 7.3-2.7 12.4-2.2 6.9.6 12.5 3.1 17.3 7.7l.3.3.2-.3c1.7-2.3 3.2-4.4 4.6-6.5l.2-.2-.2-.2c-10-10.8-31.3-12.8-42.9-4.2-4.9 3.6-7.4 8.8-7 14.3.5 5.5 3.8 10.2 9.3 13 2.3 1.2 4.7 1.9 7 2.6 2.6.8 5.3 1.5 7.9 2.2 3.4.9 7 1.9 10.4 3 4.3 1.3 6.5 3.9 6.5 7.8 0 4.2-2.7 7.5-7 8.5-4.2 1-8.7 1.3-13 .9-5.9-.5-11.5-3.2-17-8.3l-.3-.2-5.4 7.2-.2.2.2.2c6.4 6.6 17.3 10.2 27.6 10.2 5.9 0 11.7-1.2 16.3-3.8 6.6-3.7 9.8-9.3 9.6-16.5-.1-7.3-4-12.3-11.5-15.4zm64.3 0c-2.2-.9-4.5-1.5-6.7-2.2l-2.1-.6-5.4-1.5c-3.6-1-7.4-2-10.9-3.3-2.5-.9-4.1-2.8-4.5-5.1-.4-2.3.6-4.8 2.6-6.5 1.3-1.1 3-2 4.6-2.5 8.9-2.5 17.2-.8 24.8 4.9.4.3.9.7 1.3 1l1.1.8.2-.3c1.7-2.3 3.2-4.5 4.6-6.5l.2-.2-.2-.2c-11.1-10.6-30.9-12.6-42.6-4.3-5.2 3.7-7.9 9.3-7.3 14.9.6 5.7 4.5 10.6 10.3 13.1 2.4 1 5 1.7 7.5 2.4 1.2.3 2.4.6 3.6 1 1.5.4 3 .9 4.5 1.3 3.4.9 6.8 1.9 10 3.2 3 1.3 5 3.7 5.3 6.6.3 2.8-1.2 5.5-3.9 7.3-2.5 1.6-5.9 2.7-9.4 3-8.8.8-16.6-2-23.9-8.6l-.3-.2-5.6 7.2.2.2c6.1 6.6 17.1 10.3 27.5 10.3 6.3 0 12.4-1.4 17.1-4.3 6.1-3.8 9.1-9.3 8.8-16.2-.2-6.6-4-11.6-11.4-14.7zm226.2 21.6l-3.6-3-.2-.2-1 1.1c-.3.4-.6.7-.9.9-4.8 4.8-11.5 7-18.4 6.1-6.7-.9-12.5-4.7-15.8-10.4-3.5-6.1-4.4-12.9-2.7-20.3 2.1-8.7 7.2-14.1 15.1-16.1 9.1-2.3 16.2-.5 22.5 5.8.2.2.4.4.7.6.2.2.4.3.6.5l.2.2.2-.2c1.1-1 2.3-2 3.5-3 1.2-1 2.3-1.9 3.3-2.9l.2-.2-.2-.2c-5.8-7.4-13.6-10-19.1-10.8-6.8-1-14.3 0-20.4 2.7-14.7 6.6-22.1 23.6-17.4 40.3 4 14.4 16.6 23.3 32.4 23.3.8 0 1.6 0 2.4-.1 9.1-.5 16.6-4.2 22.2-11.1l.2-.2-.2-.2c-1.3-.7-2.4-1.6-3.6-2.6zm77.4-28.1c-1.8-8.6-7.1-15.8-14.9-20.3-8.1-4.7-18-5.8-27.2-3-13.4 4.2-21.3 14-22.8 28.5-1 9.5 1.7 18.5 7.6 25.4 5.9 6.8 14.6 10.8 24.4 11.1h1.9c11.1 0 19.8-3.2 26.7-9.7l.2-.2-.2-.2c-.9-1.1-1.7-2.1-2.5-3.2l-2.4-3-.2-.2-.2.2c-10.3 8.1-20.3 9.9-30.7 5.6-7.8-3.3-12.1-9.5-13.2-18.9h53.9c.3 0 .6-.3.6-.6.1-4.5-.3-8.1-1-11.5zm-53.3 4c1-8 4-13.2 10-16.8 7.1-4.4 15.3-4.5 22.9-.4 6.5 3.6 10.1 9.7 10.2 17.2h-43.1zm-178.1-24.3c-8.1-4.7-18-5.8-27.2-3-13.4 4.2-21.3 14-22.9 28.5-1 9.5 1.7 18.6 7.6 25.4 5.9 6.8 14.6 10.8 24.4 11.1h1.9c11.1 0 19.8-3.2 26.7-9.7l.2-.2-.2-.2c-.8-1-1.7-2.1-2.5-3.1s-1.6-2.1-2.4-3.1l-.2-.2-.2.2c-10.3 8.1-20.3 9.9-30.7 5.6-7.8-3.3-12.1-9.5-13.2-18.9h53.9c.3 0 .6-.3.6-.6 0-4.5-.4-8.2-1.1-11.5-1.7-8.6-7-15.8-14.7-20.3zm-38.5 24.3c1-8 4-13.2 10-16.8 7.1-4.4 15.3-4.5 22.9-.4 6.5 3.6 10.1 9.7 10.2 17.2h-43.1zM90 300.9c-8.1-4.7-18-5.8-27.2-3-13.4 4.2-21.3 14-22.9 28.5-1 9.5 1.7 18.6 7.6 25.4 5.9 6.8 14.6 10.8 24.4 11.1h1.9c11.1 0 19.8-3.2 26.7-9.7l.2-.2-.2-.2c-.8-1-1.7-2.1-2.5-3.1s-1.6-2.1-2.4-3.1l-.2-.2-.2.2c-10.3 8.1-20.3 9.9-30.7 5.6-7.8-3.3-12.1-9.5-13.2-18.9h53.9c.3 0 .6-.3.6-.6 0-4.5-.4-8.2-1.1-11.5-1.7-8.6-7-15.8-14.7-20.3zm-38.5 24.3c1-8 4-13.2 10-16.8 7.1-4.4 15.3-4.5 22.9-.4 6.5 3.6 10.1 9.7 10.2 17.2H51.5z"/></g></svg>