<svg xmlns="http://www.w3.org/2000/svg" viewBox="0 0 566.9 566.9"><style>.st0{fill:#1e1e1c}</style><g id="Calque_1"><path class="st0" d="M438.2 334.1c-3.6 0-5.3-1.3-7.2-5.4-14.6-31.4-52.3-114.7-52.7-115.6l-.1-.1h-17.1l.2.4c.6 1.2 56.3 121.4 58.3 124.9l.3.5c1.6 3 3.9 7.1 9.4 7.3h.4c6.4 0 10.3-4.9 15.8-14.6l.7-1.2-1.1.9c-.1.1-3.3 2.8-6.9 2.9z"/><path class="st0" d="M495.8 210.5c-.2 0-6.1.7-9.3 2.2-2.9 1.4-5.7 4.1-9.8 12.9l-42.9 90.9 3.5 8c.5 1.1 1.3 1.8 2.3 1.8 1 0 1.9-.7 2.6-1.9.3-.5 51.8-108.8 54-113.4l.3-.6-.7.1zm-410.6.3l-.2.1c-.1 0-6.3 3.9-9.1 7.2-2.8 3.4-5.4 8.1-5.4 19.2V346H131c5.4 0 11.1-.5 15.8-4.4 2.7-2.2 5.9-7.4 5.9-7.5l.1-.2H85.2V210.8zm134.5 113.8c-7-11.2-10.6-24.1-10.6-37.2 0-38.8 31.6-70.5 70.5-70.5 3.4 0 6.7.2 9.9.7l2.2.3-2.1-.8c-8-3.1-16.5-4.6-25.2-4.6-39 0-70.8 31.7-70.8 70.8 0 33.8 21.3 60.3 54.3 67.6l2 .5-1.9-.9c-11.6-5.9-21.4-14.8-28.3-25.9z"/><path class="st0" d="M282 223.8l-2-.2 1.8.7c23.8 9.4 39.3 31.6 39.3 56.8 0 17.5-6.2 33.4-17.4 44.6-10.9 11-25.8 17-42 17-4.7 0-9.5-.5-14.3-1.5l-2-.4 1.9.9c8.4 4.1 17.8 6.3 27.2 6.3 34.5 0 62.5-28 62.5-62.3 0-16.3-5.5-30.9-15.8-42.2-9.9-10.9-23.9-17.8-39.2-19.7zM179.8 322c-1.8 1.9-5.8 5.8-6.8 6.8-2 2-3.5 5-3.5 8.4 0 10.3 13.3 13.6 18.6 8.3 3-3 4.9-5 6.1-6.4-7.7 2.2-18.7-3.2-14.4-17.1m187.1 0c-1.8 1.9-5.8 5.8-6.8 6.8-2 2-3.5 5-3.5 8.4 0 10.3 13.3 13.6 18.6 8.3 3-3 4.9-5 6.1-6.4-7.7 2.2-18.7-3.2-14.4-17.1"/></g></svg>